<?xml version="1.0" encoding="UTF-8" standalone="no"?>
<!-- Created with Inkscape (http://www.inkscape.org/) -->

<svg
   width="199.83mm"
   height="40.841999mm"
   viewBox="0 0 199.83 40.841999"
   version="1.1"
   id="svg1"
   xml:space="preserve"
   inkscape:version="1.3.2 (091e20e, 2023-11-25, custom)"
   sodipodi:docname="locaCEP-logo.svg"
   xmlns:inkscape="http://www.inkscape.org/namespaces/inkscape"
   xmlns:sodipodi="http://sodipodi.sourceforge.net/DTD/sodipodi-0.dtd"
   xmlns:xlink="http://www.w3.org/1999/xlink"
   xmlns="http://www.w3.org/2000/svg"
   xmlns:svg="http://www.w3.org/2000/svg"><sodipodi:namedview
     id="namedview1"
     pagecolor="#ffffff"
     bordercolor="#000000"
     borderopacity="0.25"
     inkscape:showpageshadow="2"
     inkscape:pageopacity="0.0"
     inkscape:pagecheckerboard="0"
     inkscape:deskcolor="#d1d1d1"
     inkscape:document-units="mm"
     showguides="false"
     inkscape:zoom="0.81780303"
     inkscape:cx="399.85178"
     inkscape:cy="149.79157"
     inkscape:window-width="1366"
     inkscape:window-height="697"
     inkscape:window-x="-8"
     inkscape:window-y="-8"
     inkscape:window-maximized="1"
     inkscape:current-layer="layer1"><sodipodi:guide
       position="-50.975536,140.23507"
       orientation="1,0"
       id="guide4"
       inkscape:locked="false" /><sodipodi:guide
       position="-49.485775,144.80207"
       orientation="0,-1"
       id="guide5"
       inkscape:locked="false" /><sodipodi:guide
       position="-50.975489,144.34708"
       orientation="0,-1"
       id="guide6"
       inkscape:locked="false" /><sodipodi:guide
       position="-55.632475,139.75466"
       orientation="1,0"
       id="guide7"
       inkscape:locked="false" /><sodipodi:guide
       position="-55.628275,139.7546"
       orientation="0,-1"
       id="guide8"
       inkscape:locked="false" /><sodipodi:guide
       position="-53.304006,142.54022"
       orientation="1,0"
       id="guide9"
       inkscape:locked="false" /></sodipodi:namedview><defs
     id="defs1"><linearGradient
       id="linearGradient12"
       inkscape:collect="always"><stop
         style="stop-color:#131d4b;stop-opacity:1;"
         offset="0"
         id="stop12" /><stop
         style="stop-color:#274cce;stop-opacity:0.96862745;"
         offset="1"
         id="stop13" /></linearGradient><rect
       x="-168.7448"
       y="555.14587"
       width="542.91803"
       height="320.37054"
       id="rect1" /><rect
       x="-168.7448"
       y="555.14587"
       width="542.91803"
       height="320.37054"
       id="rect11" /><linearGradient
       inkscape:collect="always"
       xlink:href="#linearGradient12"
       id="linearGradient13"
       x1="-60.434105"
       y1="153.28152"
       x2="-51.492855"
       y2="153.28152"
       gradientUnits="userSpaceOnUse" /><rect
       x="-168.7448"
       y="555.14587"
       width="542.91803"
       height="320.37054"
       id="rect17" /><linearGradient
       inkscape:collect="always"
       xlink:href="#linearGradient12"
       id="linearGradient17"
       gradientUnits="userSpaceOnUse"
       x1="-60.434105"
       y1="153.28152"
       x2="-51.492855"
       y2="153.28152" /></defs><g
     inkscape:label="Camada 1"
     inkscape:groupmode="layer"
     id="layer1"><g
       id="g15"><text
         xml:space="preserve"
         transform="matrix(0.26458333,0,0,0.26458333,-5.9897433,5.0046049)"
         id="text1"
         style="font-weight:bold;font-size:29.3333px;line-height:0.9;font-family:'Reddit Sans';-inkscape-font-specification:'Reddit Sans Bold';text-decoration-color:#000000;letter-spacing:0px;white-space:pre;shape-inside:url(#rect1);opacity:1;fill:#264bcb;fill-opacity:0.968627;stroke:none;stroke-width:6.80315;stroke-linecap:round;stroke-dasharray:13.6063, 13.6063"><tspan
           x="-168.74414"
           y="576.82466"
           id="tspan6"><tspan
             style="font-weight:500;font-family:Rubik;-inkscape-font-specification:'Rubik Medium'"
             id="tspan4">Loca</tspan><tspan
             style="font-style:italic;font-weight:600;font-family:Rubik;-inkscape-font-specification:'Rubik Semi-Bold Italic'"
             id="tspan5">CEP</tspan></tspan></text><path
         style="opacity:1;fill:none;fill-opacity:1;stroke:url(#linearGradient13);stroke-width:1.46159;stroke-linecap:round;stroke-linejoin:round;stroke-miterlimit:12;stroke-dasharray:none;stroke-opacity:1;paint-order:normal"
         d="m -55.963456,153.96525 -3.739853,-4.37172 0.0067,7.37608 h 7.47296 v -7.37618"
         id="path3"
         sodipodi:nodetypes="cccc" /></g><g
       id="g17"
       transform="matrix(4.6212311,0,0,4.6212311,279.27759,-687.93145)"><g
         id="text17"
         style="font-weight:bold;font-size:29.3333px;font-family:'Reddit Sans';-inkscape-font-specification:'Reddit Sans Bold';letter-spacing:0px;white-space:pre;fill:#264bcb;fill-opacity:0.968627;stroke-width:6.80315;stroke-linecap:round;stroke-dasharray:13.6063, 13.6063"
         transform="matrix(0.26458333,0,0,0.26458333,-5.9897433,5.0046049)"
         aria-label="LocaCEP"><path
           style="-inkscape-font-specification:'Rubik Medium'"
           d="m -165.75214,576.82466 q -0.29334,0 -0.49867,-0.20533 -0.20533,-0.20534 -0.20533,-0.49867 v -19.12531 q 0,-0.29333 0.20533,-0.49867 0.20533,-0.20533 0.49867,-0.20533 h 2.72799 q 0.29334,0 0.49867,0.20533 0.20533,0.20534 0.20533,0.49867 V 573.334 h 9.29866 q 0.32266,0 0.528,0.20533 0.20533,0.20533 0.20533,0.528 v 2.05333 q 0,0.29333 -0.20533,0.49867 -0.20534,0.20533 -0.528,0.20533 z m 22.47754,0.29333 q -2.34666,0 -3.95999,-0.82133 -1.584,-0.82133 -2.43467,-2.31733 -0.82133,-1.496 -0.93866,-3.49066 -0.0293,-0.528 -0.0293,-1.29067 0,-0.76266 0.0293,-1.29066 0.11733,-2.024 0.968,-3.49067 0.88,-1.496 2.46399,-2.31733 1.61333,-0.82133 3.90133,-0.82133 2.288,0 3.872,0.82133 1.61333,0.82133 2.464,2.31733 0.87999,1.46667 0.99733,3.49067 0.0293,0.528 0.0293,1.29066 0,0.76267 -0.0293,1.29067 -0.11734,1.99466 -0.968,3.49066 -0.82133,1.496 -2.43467,2.31733 -1.58399,0.82133 -3.93066,0.82133 z m 0,-2.90399 q 1.55467,0 2.40533,-0.968 0.85067,-0.99734 0.93867,-2.904 0.0293,-0.44 0.0293,-1.144 0,-0.704 -0.0293,-1.144 -0.088,-1.87733 -0.93867,-2.87466 -0.85066,-0.99733 -2.40533,-0.99733 -1.55466,0 -2.40533,0.99733 -0.85066,0.99733 -0.93866,2.87466 -0.0293,0.44 -0.0293,1.144 0,0.704 0.0293,1.144 0.088,1.90666 0.93866,2.904 0.85067,0.968 2.40533,0.968 z m 17.21868,2.90399 q -2.112,0 -3.72533,-0.792 -1.584,-0.792 -2.49333,-2.28799 -0.88,-1.52534 -0.968,-3.66667 -0.0293,-0.44 -0.0293,-1.144 0,-0.73333 0.0293,-1.20266 0.088,-2.14133 0.968,-3.63733 0.90933,-1.52533 2.49333,-2.31733 1.61333,-0.792 3.72533,-0.792 1.87733,0 3.19733,0.528 1.32,0.528 2.17066,1.32 0.85067,0.792 1.26133,1.672 0.44,0.85066 0.46934,1.55466 0.0293,0.32267 -0.20534,0.528 -0.20533,0.176 -0.49866,0.176 h -2.58133 q -0.29334,0 -0.46933,-0.14667 -0.14667,-0.14666 -0.29334,-0.44 -0.44,-1.17333 -1.17333,-1.64266 -0.704,-0.49867 -1.81866,-0.49867 -1.46667,0 -2.34667,0.93867 -0.85066,0.90933 -0.90933,2.904 -0.0587,1.11466 0,2.05333 0.0587,2.02399 0.90933,2.93333 0.88,0.90933 2.34667,0.90933 1.14399,0 1.84799,-0.46933 0.704,-0.49867 1.144,-1.672 0.14667,-0.29334 0.29334,-0.44 0.17599,-0.14667 0.46933,-0.14667 h 2.58133 q 0.29333,0 0.49866,0.20533 0.23467,0.176 0.20534,0.49867 -0.0293,0.528 -0.29334,1.20267 -0.23466,0.64533 -0.79199,1.34933 -0.528,0.67466 -1.34934,1.26133 -0.82133,0.55733 -1.99466,0.90933 -1.144,0.352 -2.66933,0.352 z m 14.57862,0 q -1.52533,0 -2.75733,-0.58666 -1.232,-0.616 -1.96533,-1.61334 -0.704,-1.02666 -0.704,-2.28799 0,-2.05333 1.64267,-3.256 1.67199,-1.232 4.39999,-1.64266 l 4.01866,-0.58667 v -0.616 q 0,-1.232 -0.616,-1.90666 -0.616,-0.67467 -2.11199,-0.67467 -1.056,0 -1.73067,0.44 -0.64533,0.41067 -0.968,1.11467 -0.23466,0.38133 -0.67466,0.38133 h -2.31733 q -0.32267,0 -0.49867,-0.176 -0.14667,-0.176 -0.14667,-0.46933 0.0293,-0.46934 0.38134,-1.144 0.352,-0.67467 1.11466,-1.29067 0.76267,-0.64533 1.96533,-1.08533 1.20267,-0.44 2.904,-0.44 1.848,0 3.10933,0.46933 1.29066,0.44 2.05333,1.20267 0.76267,0.76266 1.11467,1.78933 0.35199,1.02666 0.35199,2.17066 v 9.21066 q 0,0.29333 -0.20533,0.49867 -0.20533,0.20533 -0.49866,0.20533 h -2.376 q -0.32267,0 -0.528,-0.20533 -0.176,-0.20534 -0.176,-0.49867 v -1.144 q -0.38133,0.55733 -1.02667,1.056 -0.64533,0.46933 -1.58399,0.792 -0.90934,0.29333 -2.17067,0.29333 z m 0.99733,-2.78666 q 1.02667,0 1.848,-0.44 0.85067,-0.44 1.32,-1.34933 0.49867,-0.93867 0.49867,-2.34667 v -0.616 l -2.93333,0.46934 q -1.73067,0.264 -2.58133,0.85066 -0.85067,0.58667 -0.85067,1.43733 0,0.64534 0.38133,1.11467 0.41067,0.44 1.02667,0.67467 0.616,0.20533 1.29066,0.20533 z"
           id="path18" /><path
           style="-inkscape-font-specification:'Rubik Semi-Bold Italic'"
           d="m -92.264015,577.11799 q -1.994664,0 -3.549329,-0.49866 -1.554665,-0.528 -2.551997,-1.55467 -0.997332,-1.02666 -1.378665,-2.49333 -0.381334,-1.496 -0.05867,-3.40266 0.205333,-1.20267 0.498666,-2.58133 0.322667,-1.37867 0.616,-2.64 0.645332,-2.52266 1.935997,-4.28266 1.319999,-1.78933 3.343996,-2.728 2.053331,-0.93866 4.839995,-0.93866 1.906664,0 3.461329,0.49866 1.583998,0.46933 2.639997,1.408 1.085332,0.90933 1.525332,2.2 0.469333,1.26133 0.176,2.84533 -0.02933,0.264 -0.234667,0.44 -0.176,0.176 -0.439999,0.176 h -3.402663 q -0.352,0 -0.557333,-0.176 -0.176,-0.176 -0.205333,-0.58667 0.088,-1.672 -0.850665,-2.34666 -0.909333,-0.67467 -2.434664,-0.67467 -1.818665,0 -3.138663,0.99733 -1.319999,0.99734 -1.877332,3.31467 -0.615999,2.40533 -1.055998,4.92799 -0.410667,2.31733 0.410666,3.31466 0.821332,0.99734 2.610663,0.99734 1.525332,0 2.727997,-0.64534 1.231999,-0.67466 1.994665,-2.37599 0.234666,-0.44 0.439999,-0.58667 0.234667,-0.176 0.586666,-0.176 h 3.37333 q 0.263999,0 0.410666,0.176 0.176,0.176 0.117333,0.44 -0.410666,1.52533 -1.231999,2.816 -0.821332,1.26133 -2.082664,2.19999 -1.231998,0.93867 -2.903996,1.43734 -1.642665,0.49866 -3.754663,0.49866 z m 12.525306,-0.29333 q -0.293333,0 -0.469333,-0.20533 -0.176,-0.20534 -0.117333,-0.528 l 4.047995,-19.06665 q 0.05867,-0.32266 0.322666,-0.528 0.264,-0.20533 0.557333,-0.20533 h 13.287985 q 0.322666,0 0.469332,0.20533 0.176,0.20534 0.117334,0.528 l -0.498666,2.34667 q -0.05867,0.29333 -0.322667,0.49866 -0.234666,0.20533 -0.557332,0.20533 h -9.50399 l -0.997332,4.60533 h 8.858657 q 0.322666,0 0.469333,0.20534 0.175999,0.20533 0.117333,0.528 l -0.469333,2.17066 q -0.05867,0.29333 -0.322666,0.49867 -0.234667,0.20533 -0.557333,0.20533 h -8.829323 l -1.026666,4.75199 h 9.738656 q 0.322666,0 0.469333,0.20534 0.175999,0.20533 0.117333,0.528 l -0.498666,2.31733 q -0.05867,0.32266 -0.322667,0.528 -0.234666,0.20533 -0.557332,0.20533 z m 18.450637,0 q -0.293333,0 -0.469332,-0.20533 -0.176,-0.20534 -0.117334,-0.528 l 4.047996,-19.06665 q 0.05867,-0.32266 0.322666,-0.528 0.264,-0.20533 0.557333,-0.20533 h 7.655991 q 1.759998,0 3.167996,0.41067 1.407999,0.41066 2.317331,1.26133 0.938666,0.82133 1.290665,2.08266 0.352,1.232 0,2.87466 -0.703999,3.344 -2.93333,4.95733 -2.199997,1.584 -5.86666,1.584 h -4.341328 l -1.407998,6.62933 q -0.05867,0.32266 -0.322667,0.528 -0.234666,0.20533 -0.557332,0.20533 z m 6.335993,-10.99999 h 3.783996 q 1.407998,0 2.463997,-0.73333 1.085332,-0.73333 1.407998,-2.2 0.176,-0.88 0.05867,-1.52533 -0.088,-0.67467 -0.674666,-1.02667 -0.586666,-0.38133 -1.847998,-0.38133 h -3.930662 z"
           id="path19" /></g><path
         style="color:#000000;fill:url(#linearGradient17);stroke-linecap:round;stroke-linejoin:round;stroke-miterlimit:12;-inkscape-stroke:none"
         d="m -52.224609,148.86328 a 0.73079503,0.73079503 0 0 0 -0.730469,0.73047 v 6.64453 h -6.011719 l -0.0039,-4.66601 2.451172,2.86718 a 0.73079503,0.73079503 0 0 0 1.03125,0.082 0.73079503,0.73079503 0 0 0 0.08008,-1.03125 l -3.740234,-4.37109 a 0.73086811,0.73086811 0 0 0 -1.285157,0.47461 l 0.0059,7.37695 a 0.73086811,0.73086811 0 0 0 0.730468,0.73047 h 7.472657 a 0.73086811,0.73086811 0 0 0 0.732422,-0.73242 v -7.375 a 0.73079503,0.73079503 0 0 0 -0.732422,-0.73047 z"
         id="path17" /></g></g></svg>
